# xmcd
#
# Track frame offsets:
#	150
#	11702
#	24837
#	39612
#	58118
#	72898
#	86015
#	99275
#	112769
#	124914
#	139200
#	150114
#	163957
#	176559
#
# Disc length: 2535 seconds
#
# Revision: 1
# Processed by: cddbd v1.5.2PL0 Copyright (c) Steve Scherf et al.
# Submitted via: audiograbber 1.83.01
#
DISCID=ad09e50e
DTITLE=Various - Zärtliche Saxophon Melodien - CD 3
DYEAR=1900
DGENRE=Dream
TTITLE0=Manny Sax - La Paloma
TTITLE1=Erwin Fliegel - I hab di gern
TTITLE2=Johnny More - Ruf des Herzens
TTITLE3=Manny Sax - Midnight Sax
TTITLE4=Johnny More - Saxophon Romantica
TTITLE5=Ambros Seelos - Schau ich in deine Augen
TTITLE6=Johnny More  - Golden Glimmer
TTITLE7=Johnny More - Zärtliche Erinnerung
TTITLE8=Manny Sax - Liebe auf Zeit
TTITLE9=Johnny More - Zauber der Gefühle
TTITLE10=Manny Sax - Nur mir dir
TTITLE11=Johnny More - Träumende Herzen
TTITLE12=Dynamics - Romantic Nights
TTITLE13=Johnny More - Sehnsucht nach dir
EXTD=
EXTT0=
EXTT1=
EXTT2=
EXTT3=
EXTT4=
EXTT5=
EXTT6=
EXTT7=
EXTT8=
EXTT9=
EXTT10=
EXTT11=
EXTT12=
EXTT13=
PLAYORDER=
